<?xml version="1.0" standalone="no"?>
<!DOCTYPE svg PUBLIC "-//W3C//DTD SVG 20010904//EN"
 "http://www.w3.org/TR/2001/REC-SVG-20010904/DTD/svg10.dtd">
<svg version="1.0" xmlns="http://www.w3.org/2000/svg"
 width="82.000000pt" height="39.000000pt" viewBox="0 0 82.000000 39.000000"
 preserveAspectRatio="xMidYMid meet">

<g transform="translate(0.000000,39.000000) scale(0.100000,-0.100000)"
fill="#5ab0cc" stroke="none">
<path d="M139 228 c-22 -25 -28 -39 -24 -58 20 -88 149 -75 149 15 0 74 -73
99 -125 43z"/>
<path d="M377 248 c-27 -21 -36 -60 -22 -94 33 -80 157 -44 141 41 -11 55 -77
84 -119 53z"/>
<path d="M602 240 c-29 -27 -29 -83 -2 -110 30 -30 83 -27 109 6 28 35 26 69
-4 99 -30 31 -73 32 -103 5z"/>
</g>
</svg>
