<?xml version="1.0" standalone="no"?>
<!DOCTYPE svg PUBLIC "-//W3C//DTD SVG 20010904//EN"
 "http://www.w3.org/TR/2001/REC-SVG-20010904/DTD/svg10.dtd">
<svg version="1.0" xmlns="http://www.w3.org/2000/svg"
 width="456.000000pt" height="468.000000pt" viewBox="0 0 456.000000 468.000000"
 preserveAspectRatio="xMidYMid meet">

<g transform="translate(0.000000,468.000000) scale(0.100000,-0.100000)"
fill="#000000" stroke="none">
<path d="M1915 3945 c-196 -35 -416 -125 -571 -234 -299 -211 -505 -534 -570
-891 -26 -139 -23 -373 5 -508 129 -612 612 -1049 1232 -1113 234 -24 498 24
727 133 71 34 86 38 100 26 9 -7 201 -198 427 -425 326 -327 421 -417 463
-438 190 -93 403 -18 496 175 27 57 31 75 31 150 0 152 3 148 -489 643 -335
337 -423 431 -418 445 5 9 23 49 41 87 82 173 119 326 128 525 6 150 -5 259
-41 404 -128 501 -536 893 -1049 1007 -121 27 -396 35 -512 14z m364 -355
c298 -38 572 -222 738 -496 43 -72 99 -216 119 -309 24 -116 23 -314 -4 -430
-55 -242 -216 -482 -411 -614 -88 -60 -230 -125 -331 -153 -74 -19 -108 -22
-255 -22 -187 1 -251 12 -400 75 -240 99 -463 331 -551 569 -57 157 -78 358
-55 521 41 279 211 545 451 704 204 134 441 187 699 155z"/>
<path d="M1960 3291 c-247 -69 -422 -223 -509 -450 -53 -138 -65 -264 -32
-337 48 -107 190 -138 277 -62 48 42 61 71 69 153 13 126 62 217 153 287 44
33 148 68 204 68 62 0 132 35 164 83 58 87 27 210 -66 257 -50 26 -168 26
-260 1z"/>
</g>
</svg>
