<?xml version="1.0" standalone="no"?>
<!DOCTYPE svg PUBLIC "-//W3C//DTD SVG 20010904//EN"
 "http://www.w3.org/TR/2001/REC-SVG-20010904/DTD/svg10.dtd">
<svg version="1.0" xmlns="http://www.w3.org/2000/svg"
 width="38.000000pt" height="36.000000pt" viewBox="0 0 38.000000 36.000000"
 preserveAspectRatio="xMidYMid meet">

<g transform="translate(0.000000,36.000000) scale(0.100000,-0.100000)"
fill="#5ab0cc" stroke="none">
<path d="M201 216 c-53 -56 -64 -80 -33 -69 24 8 112 95 112 110 0 27 -29 11
-79 -41z"/>
<path d="M124 252 c-31 -20 -46 -117 -25 -151 14 -22 115 -27 146 -7 29 19 36
76 10 76 -10 0 -15 -10 -15 -30 l0 -30 -60 0 -60 0 0 59 c0 56 1 59 27 66 21
5 24 8 12 16 -17 11 -21 11 -35 1z"/>
</g>
</svg>
